# xmcd
#
# Track frame offsets: 
#        150
#        31016
#        53656
#        76356
#        93087
#        116232
#        142399
#        169544
#        192542
#        216316
#        241028
#        255773
#        272503
#
# Disc length: 3781 seconds
#
# Revision: 0
# Processed by: cddbd v1.5.2PL0 Copyright (c) Steve Scherf et al.
# Submitted via: ExactAudioCopy v1.0b3
#
DISCID=aa0ec30d
DTITLE=CADAVERIA - HORROR METAL
DYEAR=2012
DGENRE=GOTHIC METAL
TTITLE0=FLOWERS IN FIRE
TTITLE1=THE NIGHT'S THEATRE
TTITLE2=DEATH VISION
TTITLE3=WHISPERS OF SIN
TTITLE4=ASSASSIN
TTITLE5=THE DAYS OF THE AFTER AND BEHIND
TTITLE6=APOCALYPSE
TTITLE7=THE ORACLE (OF THE FOG)
TTITLE8=REQUIEM
TTITLE9=THIS IS NOT THE SILENCE
TTITLE10=HYPNOTIC PSYCHOSIS
TTITLE11=WHISPERS OF SIN (ANCESTRAL REMIX)
TTITLE12=HYPNOTIC PSYCHOSIS (CHAOTIC REMIX)
EXTD=
EXTT0=
EXTT1=
EXTT2=
EXTT3=
EXTT4=
EXTT5=
EXTT6=
EXTT7=
EXTT8=
EXTT9=
EXTT10=
EXTT11=
EXTT12=
PLAYORDER=
